# xmcd
#
# Track frame offsets:
#	150
#	15535
#	51314
#	68219
#	102719
#	136824
#	155879
#	178285
#	202518
#	223382
#
# Disc length: 3539 seconds
#
# Revision: 1
# Processed by: cddbd v1.5.2PL0 Copyright (c) Steve Scherf et al.
# Submitted via: audiograbber 1.83.01
#
DISCID=980dd10a
DTITLE=Grateful Dead - 73-10-19 Oklahoma City Fairgrounds Arena, Oklahoma City 
DTITLE=OK
DYEAR=1900
DGENRE=
TTITLE0=Promised Land
TTITLE1=Sugaree
TTITLE2=Mexicali Blues
TTITLE3=Tennessee Jed
TTITLE4=Looks Like Rain
TTITLE5=Don't Ease Me In
TTITLE6=Jack Straw
TTITLE7=They Love Each Other
TTITLE8=El Paso
TTITLE9=Row Jimmy
EXTD=
EXTT0=
EXTT1=
EXTT2=
EXTT3=
EXTT4=
EXTT5=
EXTT6=
EXTT7=
EXTT8=
EXTT9=
PLAYORDER=
